# xmcd CD database file
#
# Track frame offsets:
#	150
#	33131
#	57186
#	75334
#	93830
#	110815
#	152843
#	183206
#	207941
#	235282
#	269912
#	303749
#
# Disc length: 4516 seconds
#
# Revision: 0
# Processed by: cddbd v1.5.2PL0 Copyright (c) Steve Scherf et al.
# Submitted via: CDex 1.70beta2
#
DISCID=9d11a20c
DTITLE=Blue Note - Best Blue Note 100 Disc7 Big Hits
DYEAR=2009
DGENRE=Jazz
TTITLE0=Night Dreamer
TTITLE1=Stardust
TTITLE2=Midnight Blue
TTITLE3=Dancing In The Dark
TTITLE4=Liebestraum
TTITLE5=Desert Moonlight
TTITLE6=Deep In A Dream
TTITLE7=Full Moon And Empty Arms
TTITLE8=Stella By Starlight
TTITLE9=Lullaby Of The Leaves
TTITLE10=Darn That Dream
TTITLE11=Starbrite
EXTD=YEAR: 2009
EXTT0=
EXTT1=
EXTT2=
EXTT3=
EXTT4=
EXTT5=
EXTT6=
EXTT7=
EXTT8=
EXTT9=
EXTT10=
EXTT11=
PLAYORDER=
